<svg width="374" height="644" viewBox="0 0 374 644" fill="none" xmlns="http://www.w3.org/2000/svg">
<path d="M371.5 0C372.605 2.57702e-07 373.5 0.895431 373.5 2V557C373.5 561.239 370.827 565.017 366.83 566.429C362.833 567.84 358.381 566.579 355.719 563.28L257.998 442.201C257.524 441.614 257.441 440.846 257.698 440.194C238.231 456.312 213.248 466 186 466C123.868 466 73.5 415.632 73.5 353.5C73.5 317.944 89.9954 286.242 115.75 265.626C115.484 265.501 115.24 265.318 115.042 265.073L23.5566 151.719C22.3721 150.251 20.0004 151.089 20 152.975V641.5C20 642.605 19.1046 643.5 18 643.5H2C0.895431 643.5 2.12658e-08 642.605 0 641.5V119C0 114.761 2.67292 110.983 6.66992 109.571C10.6669 108.16 15.12 109.421 17.7822 112.72L130.689 252.615C131.432 253.535 131.218 254.893 130.243 255.562C129.645 255.972 129.051 256.387 128.461 256.809C145.296 246.769 164.974 241 186 241C248.132 241 298.5 291.368 298.5 353.5C298.5 386.91 283.935 416.918 260.809 437.522C264.19 434.976 267.424 432.242 270.492 429.337C271.351 428.524 272.724 428.602 273.467 429.521L349.943 524.28C351.128 525.748 353.5 524.91 353.5 523.024V2C353.5 0.895431 354.395 1.61063e-08 355.5 0H371.5ZM186 261C134.914 261 93.5 302.414 93.5 353.5C93.5 404.586 134.914 446 186 446C237.086 446 278.5 404.586 278.5 353.5C278.5 302.414 237.086 261 186 261ZM124.423 297.624C137.912 283.255 157.601 274.764 183.043 276.147C188.558 276.447 192.785 281.161 192.485 286.676C192.185 292.19 187.472 296.417 181.957 296.117C161.941 295.029 148.144 301.577 139.005 311.312C129.629 321.301 124.39 335.49 123.482 350.6C123.151 356.113 118.413 360.314 112.9 359.982C107.387 359.651 103.186 354.913 103.518 349.4C104.639 330.722 111.171 311.741 124.423 297.624ZM222 279C228.904 279 234.5 284.149 234.5 290.5C234.5 296.851 228.904 302 222 302C215.096 302 209.5 296.851 209.5 290.5C209.5 284.149 215.096 279 222 279Z" fill="black"/>
</svg>
